<svg width="64" height="64" xmlns="http://www.w3.org/2000/svg">

 <g>
  <path stroke="null" id="svg_1" fill="#3F00A5" d="m49.86628,13.52187c-4.37873,1.31461 -6.48704,3.67274 -7.9234,7.34527c-0.37079,0.98088 -1.29754,2.06588 -2.34005,2.79619l3.59102,3.46408l-11.39866,-7.1783l-31.46185,-19.78243c0,0 2.27044,13.2716 3.05817,18.15462c0.55603,3.44313 1.50591,4.98735 4.51773,6.55252l1.20471,0.58429l5.18961,2.46225l-3.08132,-1.43989l14.22497,6.99059l-0.09247,0.18792l-15.31406,-6.38555c0.81088,2.50415 2.38629,7.32453 3.05815,9.45304c0.7182,2.29528 1.52908,3.13013 4.00805,3.94383l4.56405,1.50253l2.82647,-1.00162l-3.591,2.14926l-17.95509,20.51274c11.93145,-9.9747 22.03264,-13.52216 29.42314,-16.42268c9.4294,-3.67274 15.10544,-6.03066 18.81222,-14.50283c2.64121,-5.94728 4.70317,-13.56385 7.32109,-16.50627l5.58357,-6.42708c0,0 -11.56077,2.75454 -14.22504,3.5475z"/>
 </g>
</svg>
